<svg width="479" height="37" viewBox="0 0 479 37" fill="none" xmlns="http://www.w3.org/2000/svg">
<path d="M7.95938 19.2C6.33271 19.2 4.93938 18.8 3.77938 18C2.63271 17.2 1.93938 15.9934 1.69938 14.38H3.55938C3.78604 15.5 4.31271 16.3134 5.13938 16.82C5.97938 17.3134 6.94604 17.56 8.03938 17.56C9.13271 17.56 9.97271 17.3334 10.5594 16.88C11.1594 16.4267 11.4594 15.7534 11.4594 14.86C11.4594 14.18 11.2727 13.6467 10.8994 13.26C10.526 12.86 10.0594 12.5667 9.49938 12.38C8.93938 12.18 8.18604 11.98 7.23938 11.78C6.17271 11.5534 5.31271 11.3267 4.65938 11.1C4.00604 10.86 3.45271 10.4734 2.99938 9.94004C2.54604 9.4067 2.31938 8.67337 2.31938 7.74004C2.31938 6.8867 2.52604 6.1467 2.93938 5.52004C3.36604 4.88004 3.95271 4.39337 4.69938 4.06004C5.45938 3.71337 6.33271 3.54004 7.31938 3.54004C8.71938 3.54004 9.93271 3.9067 10.9594 4.64004C11.986 5.36004 12.6194 6.46004 12.8594 7.94004H11.0794C10.8794 6.9667 10.4327 6.2667 9.73938 5.84004C9.04604 5.40004 8.23271 5.18004 7.29938 5.18004C6.28604 5.18004 5.50604 5.39337 4.95938 5.82004C4.42604 6.2467 4.15938 6.83337 4.15938 7.58004C4.15938 8.1667 4.32604 8.63337 4.65938 8.98004C5.00604 9.31337 5.43271 9.5667 5.93938 9.74004C6.45938 9.91337 7.16604 10.0934 8.05938 10.28C9.19271 10.52 10.106 10.7734 10.7994 11.04C11.4927 11.2934 12.0794 11.7134 12.5594 12.3C13.0527 12.8867 13.2994 13.7 13.2994 14.74C13.2994 16.1134 12.8327 17.2 11.8994 18C10.9794 18.8 9.66604 19.2 7.95938 19.2ZM20.6564 19.2C19.6164 19.2 18.6831 18.9534 17.8564 18.46C17.0431 17.9667 16.4097 17.2867 15.9564 16.42C15.5031 15.5534 15.2764 14.58 15.2764 13.5C15.2764 12.4734 15.4897 11.5267 15.9164 10.66C16.3431 9.78004 16.9564 9.07337 17.7564 8.54004C18.5697 8.0067 19.5231 7.74004 20.6164 7.74004C21.5631 7.74004 22.4431 7.95337 23.2564 8.38004C24.0697 8.8067 24.7231 9.43337 25.2164 10.26C25.7097 11.0734 25.9564 12.0534 25.9564 13.2V13.8H16.9564C16.9831 14.1867 17.0564 14.5534 17.1764 14.9C17.4564 15.7534 17.9031 16.4334 18.5164 16.94C19.1431 17.4467 19.8497 17.7 20.6364 17.7C21.4364 17.7 22.1231 17.4867 22.6964 17.06C23.2697 16.6334 23.6831 16.0934 23.9364 15.44H25.7564C25.3964 16.56 24.7831 17.4667 23.9164 18.16C23.0497 18.8534 21.9631 19.2 20.6564 19.2ZM24.1364 12.3C24.1097 11.9 24.0297 11.54 23.8964 11.22C23.6164 10.5934 23.1831 10.1067 22.5964 9.76004C22.0231 9.41337 21.3764 9.24004 20.6564 9.24004C19.9231 9.24004 19.2764 9.41337 18.7164 9.76004C18.1697 10.1067 17.7431 10.5934 17.4364 11.22C17.3031 11.5134 17.1964 11.8734 17.1164 12.3H24.1364ZM28.3145 19V7.94004H30.0145V9.46004C30.5212 8.8467 31.0612 8.4067 31.6345 8.14004C32.2079 7.87337 32.8745 7.74004 33.6345 7.74004H33.7145V9.44004H33.1345C32.2412 9.44004 31.5279 9.7067 30.9945 10.24C30.3412 10.8667 30.0145 11.8467 30.0145 13.18V19H28.3145ZM40.0402 19H38.6402L34.5602 7.94004H36.4402L39.3402 16.12L42.2802 7.94004H44.1402L40.0402 19ZM47.6513 19H45.9513V7.94004H47.6513V19ZM46.8113 6.04004C46.4513 6.04004 46.1446 5.92004 45.8913 5.68004C45.6379 5.4267 45.5113 5.1267 45.5113 4.78004C45.5113 4.43337 45.6379 4.14004 45.8913 3.90004C46.1446 3.66004 46.4513 3.54004 46.8113 3.54004C47.1713 3.54004 47.4779 3.66004 47.7313 3.90004C47.9846 4.14004 48.1113 4.43337 48.1113 4.78004C48.1113 5.1267 47.9846 5.4267 47.7313 5.68004C47.4779 5.92004 47.1713 6.04004 46.8113 6.04004ZM55.3825 19.2C55.1292 19.48 54.8225 19.7467 54.4625 20L54.6025 20.18C54.9225 20.14 55.1758 20.12 55.3625 20.12C55.6692 20.12 55.9225 20.16 56.1225 20.24C56.9092 20.4934 57.3025 20.9734 57.3025 21.68C57.3025 22.2267 57.0758 22.6467 56.6225 22.94C56.1692 23.2467 55.5758 23.4 54.8425 23.4C54.2158 23.4 53.6025 23.3134 53.0025 23.14V22.4C53.6425 22.64 54.2292 22.76 54.7625 22.76C55.2158 22.76 55.5758 22.6667 55.8425 22.48C56.1092 22.3067 56.2425 22.0534 56.2425 21.72C56.2425 21.2534 55.9958 20.9267 55.5025 20.74C55.0092 20.5667 54.2825 20.4934 53.3225 20.52L54.4025 19.12C53.5358 18.9734 52.7692 18.64 52.1025 18.12C51.4492 17.6 50.9358 16.9334 50.5625 16.12C50.2025 15.3067 50.0225 14.4067 50.0225 13.42C50.0225 12.34 50.2492 11.3667 50.7025 10.5C51.1558 9.63337 51.7892 8.96004 52.6025 8.48004C53.4158 7.9867 54.3425 7.74004 55.3825 7.74004C56.6225 7.74004 57.6692 8.06004 58.5225 8.70004C59.3892 9.3267 59.9492 10.18 60.2025 11.26H58.3825C58.1692 10.6467 57.7892 10.16 57.2425 9.80004C56.7092 9.4267 56.0892 9.24004 55.3825 9.24004C54.6892 9.24004 54.0625 9.42004 53.5025 9.78004C52.9558 10.14 52.5225 10.64 52.2025 11.28C51.8825 11.9067 51.7225 12.62 51.7225 13.42C51.7225 14.2467 51.8758 14.9867 52.1825 15.64C52.5025 16.28 52.9425 16.7867 53.5025 17.16C54.0625 17.52 54.6892 17.7 55.3825 17.7C56.1425 17.7 56.7958 17.4934 57.3425 17.08C57.9025 16.6667 58.2758 16.12 58.4625 15.44H60.2825C60.0425 16.6134 59.4758 17.5334 58.5825 18.2C57.7025 18.8667 56.6358 19.2 55.3825 19.2ZM67.4538 19.2C66.4138 19.2 65.4804 18.9534 64.6538 18.46C63.8404 17.9667 63.2004 17.28 62.7338 16.4C62.2804 15.52 62.0538 14.5267 62.0538 13.42C62.0538 12.34 62.2804 11.3667 62.7338 10.5C63.2004 9.63337 63.8404 8.96004 64.6538 8.48004C65.4804 7.9867 66.4138 7.74004 67.4538 7.74004C68.4938 7.74004 69.4271 7.9867 70.2538 8.48004C71.0804 8.96004 71.7271 9.63337 72.1938 10.5C72.6604 11.3667 72.8938 12.34 72.8938 13.42C72.8938 14.5267 72.6604 15.52 72.1938 16.4C71.7404 17.2667 71.1004 17.9534 70.2738 18.46C69.4471 18.9534 68.5071 19.2 67.4538 19.2ZM67.4538 17.7C68.1471 17.7 68.7738 17.5134 69.3338 17.14C69.9071 16.7667 70.3538 16.26 70.6738 15.62C71.0071 14.9667 71.1738 14.2334 71.1738 13.42C71.1738 12.6467 71.0138 11.94 70.6938 11.3C70.3738 10.66 69.9271 10.16 69.3538 9.80004C68.7938 9.4267 68.1604 9.24004 67.4538 9.24004C66.7604 9.24004 66.1271 9.42004 65.5538 9.78004C64.9938 10.14 64.5538 10.64 64.2338 11.28C63.9138 11.92 63.7538 12.6334 63.7538 13.42C63.7538 14.2334 63.9138 14.9667 64.2338 15.62C64.5538 16.2734 64.9938 16.7867 65.5538 17.16C66.1271 17.52 66.7604 17.7 67.4538 17.7ZM79.7472 19.2C78.3472 19.2 77.2072 18.8667 76.3272 18.2C75.4472 17.5334 74.9139 16.6134 74.7272 15.44H76.5072C76.6539 16.1467 76.9939 16.7 77.5272 17.1C78.0739 17.5 78.8205 17.7 79.7672 17.7C80.5405 17.7 81.1539 17.5534 81.6072 17.26C82.0739 16.9667 82.3072 16.5467 82.3072 16C82.3072 15.5734 82.1672 15.2334 81.8872 14.98C81.6205 14.7134 81.2739 14.5134 80.8472 14.38C80.4339 14.2467 79.8805 14.1134 79.1872 13.98C78.3205 13.8067 77.6205 13.6334 77.0872 13.46C76.5672 13.2734 76.1205 12.98 75.7472 12.58C75.3739 12.18 75.1872 11.6267 75.1872 10.92C75.1872 9.92004 75.5605 9.14004 76.3072 8.58004C77.0672 8.02004 78.0339 7.74004 79.2072 7.74004C80.4072 7.74004 81.4072 8.05337 82.2072 8.68004C83.0072 9.3067 83.5005 10.1667 83.6872 11.26H82.1072C81.9472 10.58 81.6139 10.0734 81.1072 9.74004C80.6005 9.4067 79.9672 9.24004 79.2072 9.24004C78.4739 9.24004 77.9005 9.38004 77.4872 9.66004C77.0872 9.9267 76.8872 10.3 76.8872 10.78C76.8872 11.1534 77.0139 11.4467 77.2672 11.66C77.5205 11.8734 77.8339 12.04 78.2072 12.16C78.5805 12.2667 79.1072 12.3867 79.7872 12.52C80.6805 12.6934 81.4072 12.88 81.9672 13.08C82.5272 13.2667 83.0072 13.58 83.4072 14.02C83.8072 14.4467 84.0072 15.0467 84.0072 15.82C84.0072 16.86 83.6339 17.6867 82.8872 18.3C82.1405 18.9 81.0939 19.2 79.7472 19.2Z" fill="#2ACE31"/>
<path d="M193.434 14.36C193.434 15.64 193.221 16.8267 192.794 17.92C192.381 19 191.768 19.8934 190.954 20.6L192.954 23.74H190.934L189.474 21.56C188.554 21.9867 187.501 22.2 186.314 22.2C184.781 22.2 183.481 21.8467 182.414 21.14C181.348 20.4334 180.548 19.4867 180.014 18.3C179.494 17.1 179.234 15.7867 179.234 14.36C179.234 12.9334 179.494 11.6267 180.014 10.44C180.548 9.25337 181.348 8.3067 182.414 7.60004C183.481 6.89337 184.781 6.54004 186.314 6.54004C187.861 6.54004 189.168 6.89337 190.234 7.60004C191.314 8.3067 192.114 9.25337 192.634 10.44C193.168 11.6134 193.434 12.92 193.434 14.36ZM181.074 14.36C181.074 15.56 181.274 16.6267 181.674 17.56C182.088 18.4934 182.688 19.2267 183.474 19.76C184.261 20.28 185.208 20.54 186.314 20.54C187.434 20.54 188.388 20.28 189.174 19.76C189.974 19.2267 190.574 18.4934 190.974 17.56C191.388 16.6267 191.594 15.56 191.594 14.36C191.594 13.16 191.388 12.1 190.974 11.18C190.574 10.2467 189.974 9.52004 189.174 9.00004C188.388 8.4667 187.434 8.20004 186.314 8.20004C185.208 8.20004 184.261 8.4667 183.474 9.00004C182.688 9.52004 182.088 10.2467 181.674 11.18C181.274 12.1 181.074 13.16 181.074 14.36ZM199.625 22.2C198.078 22.2 196.992 21.62 196.365 20.46C196.018 19.8067 195.845 18.8534 195.845 17.6V10.94H197.545V17.6C197.545 18.7734 197.758 19.6 198.185 20.08C198.558 20.4934 199.125 20.7 199.885 20.7C200.725 20.7 201.398 20.4267 201.905 19.88C202.265 19.5067 202.518 18.9934 202.665 18.34C202.825 17.6867 202.905 16.7934 202.905 15.66V10.94H204.605V22H202.905V20.28C202.372 20.96 201.845 21.4534 201.325 21.76C200.818 22.0534 200.252 22.2 199.625 22.2ZM212.367 22.2C211.327 22.2 210.394 21.9534 209.567 21.46C208.754 20.9667 208.121 20.2867 207.667 19.42C207.214 18.5534 206.987 17.58 206.987 16.5C206.987 15.4734 207.201 14.5267 207.627 13.66C208.054 12.78 208.667 12.0734 209.467 11.54C210.281 11.0067 211.234 10.74 212.327 10.74C213.274 10.74 214.154 10.9534 214.967 11.38C215.781 11.8067 216.434 12.4334 216.927 13.26C217.421 14.0734 217.667 15.0534 217.667 16.2V16.8H208.667C208.694 17.1867 208.767 17.5534 208.887 17.9C209.167 18.7534 209.614 19.4334 210.227 19.94C210.854 20.4467 211.561 20.7 212.347 20.7C213.147 20.7 213.834 20.4867 214.407 20.06C214.981 19.6334 215.394 19.0934 215.647 18.44H217.467C217.107 19.56 216.494 20.4667 215.627 21.16C214.761 21.8534 213.674 22.2 212.367 22.2ZM215.847 15.3C215.821 14.9 215.741 14.54 215.607 14.22C215.327 13.5934 214.894 13.1067 214.307 12.76C213.734 12.4134 213.087 12.24 212.367 12.24C211.634 12.24 210.987 12.4134 210.427 12.76C209.881 13.1067 209.454 13.5934 209.147 14.22C209.014 14.5134 208.907 14.8734 208.827 15.3H215.847ZM220.025 22V10.94H221.725V12.66C222.272 11.9534 222.799 11.46 223.305 11.18C223.825 10.8867 224.392 10.74 225.005 10.74C225.752 10.74 226.405 10.9134 226.965 11.26C227.539 11.6067 227.905 12.1134 228.065 12.78C228.759 11.42 229.925 10.74 231.565 10.74C232.792 10.74 233.712 11.0934 234.325 11.8C234.939 12.4934 235.245 13.4934 235.245 14.8V22H233.545V15.2C233.545 14.2534 233.345 13.5267 232.945 13.02C232.559 12.5 232.012 12.24 231.305 12.24C230.572 12.24 229.972 12.4867 229.505 12.98C229.132 13.38 228.865 13.9 228.705 14.54C228.559 15.18 228.485 16 228.485 17V22H226.785V15.2C226.785 14.2667 226.579 13.54 226.165 13.02C225.765 12.5 225.219 12.24 224.525 12.24C223.792 12.24 223.192 12.5067 222.725 13.04C222.379 13.4267 222.125 13.9267 221.965 14.54C221.805 15.1534 221.725 15.9734 221.725 17V22H220.025ZM248.079 22.2C246.679 22.2 245.539 21.8667 244.659 21.2C243.779 20.5334 243.246 19.6134 243.059 18.44H244.839C244.986 19.1467 245.326 19.7 245.859 20.1C246.406 20.5 247.153 20.7 248.099 20.7C248.873 20.7 249.486 20.5534 249.939 20.26C250.406 19.9667 250.639 19.5467 250.639 19C250.639 18.5734 250.499 18.2334 250.219 17.98C249.953 17.7134 249.606 17.5134 249.179 17.38C248.766 17.2467 248.213 17.1134 247.519 16.98C246.653 16.8067 245.953 16.6334 245.419 16.46C244.899 16.2734 244.453 15.98 244.079 15.58C243.706 15.18 243.519 14.6267 243.519 13.92C243.519 12.92 243.893 12.14 244.639 11.58C245.399 11.02 246.366 10.74 247.539 10.74C248.739 10.74 249.739 11.0534 250.539 11.68C251.339 12.3067 251.833 13.1667 252.019 14.26H250.439C250.279 13.58 249.946 13.0734 249.439 12.74C248.933 12.4067 248.299 12.24 247.539 12.24C246.806 12.24 246.233 12.38 245.819 12.66C245.419 12.9267 245.219 13.3 245.219 13.78C245.219 14.1534 245.346 14.4467 245.599 14.66C245.853 14.8734 246.166 15.04 246.539 15.16C246.913 15.2667 247.439 15.3867 248.119 15.52C249.013 15.6934 249.739 15.88 250.299 16.08C250.859 16.2667 251.339 16.58 251.739 17.02C252.139 17.4467 252.339 18.0467 252.339 18.82C252.339 19.86 251.966 20.6867 251.219 21.3C250.473 21.9 249.426 22.2 248.079 22.2ZM259.692 22.2C258.652 22.2 257.719 21.9534 256.892 21.46C256.079 20.9667 255.439 20.28 254.972 19.4C254.519 18.52 254.292 17.5267 254.292 16.42C254.292 15.34 254.519 14.3667 254.972 13.5C255.439 12.6334 256.079 11.96 256.892 11.48C257.719 10.9867 258.652 10.74 259.692 10.74C260.732 10.74 261.665 10.9867 262.492 11.48C263.319 11.96 263.965 12.6334 264.432 13.5C264.899 14.3667 265.132 15.34 265.132 16.42C265.132 17.5267 264.899 18.52 264.432 19.4C263.979 20.2667 263.339 20.9534 262.512 21.46C261.685 21.9534 260.745 22.2 259.692 22.2ZM259.692 20.7C260.385 20.7 261.012 20.5134 261.572 20.14C262.145 19.7667 262.592 19.26 262.912 18.62C263.245 17.9667 263.412 17.2334 263.412 16.42C263.412 15.6467 263.252 14.94 262.932 14.3C262.612 13.66 262.165 13.16 261.592 12.8C261.032 12.4267 260.399 12.24 259.692 12.24C258.999 12.24 258.365 12.42 257.792 12.78C257.232 13.14 256.792 13.64 256.472 14.28C256.152 14.92 255.992 15.6334 255.992 16.42C255.992 17.2334 256.152 17.9667 256.472 18.62C256.792 19.2734 257.232 19.7867 257.792 20.16C258.365 20.52 258.999 20.7 259.692 20.7ZM267.525 22V10.94H269.225V12.66C269.772 11.9534 270.299 11.46 270.805 11.18C271.325 10.8867 271.892 10.74 272.505 10.74C273.252 10.74 273.905 10.9134 274.465 11.26C275.039 11.6067 275.405 12.1134 275.565 12.78C276.259 11.42 277.425 10.74 279.065 10.74C280.292 10.74 281.212 11.0934 281.825 11.8C282.439 12.4934 282.745 13.4934 282.745 14.8V22H281.045V15.2C281.045 14.2534 280.845 13.5267 280.445 13.02C280.059 12.5 279.512 12.24 278.805 12.24C278.072 12.24 277.472 12.4867 277.005 12.98C276.632 13.38 276.365 13.9 276.205 14.54C276.059 15.18 275.985 16 275.985 17V22H274.285V15.2C274.285 14.2667 274.079 13.54 273.665 13.02C273.265 12.5 272.719 12.24 272.025 12.24C271.292 12.24 270.692 12.5067 270.225 13.04C269.879 13.4267 269.625 13.9267 269.465 14.54C269.305 15.1534 269.225 15.9734 269.225 17V22H267.525ZM290.454 22.2C289.414 22.2 288.48 21.9534 287.654 21.46C286.84 20.9667 286.2 20.28 285.734 19.4C285.28 18.52 285.054 17.5267 285.054 16.42C285.054 15.34 285.28 14.3667 285.734 13.5C286.2 12.6334 286.84 11.96 287.654 11.48C288.48 10.9867 289.414 10.74 290.454 10.74C291.494 10.74 292.427 10.9867 293.254 11.48C294.08 11.96 294.727 12.6334 295.194 13.5C295.66 14.3667 295.894 15.34 295.894 16.42C295.894 17.5267 295.66 18.52 295.194 19.4C294.74 20.2667 294.1 20.9534 293.274 21.46C292.447 21.9534 291.507 22.2 290.454 22.2ZM290.454 20.7C291.147 20.7 291.774 20.5134 292.334 20.14C292.907 19.7667 293.354 19.26 293.674 18.62C294.007 17.9667 294.174 17.2334 294.174 16.42C294.174 15.6467 294.014 14.94 293.694 14.3C293.374 13.66 292.927 13.16 292.354 12.8C291.794 12.4267 291.16 12.24 290.454 12.24C289.76 12.24 289.127 12.42 288.554 12.78C287.994 13.14 287.554 13.64 287.234 14.28C286.914 14.92 286.754 15.6334 286.754 16.42C286.754 17.2334 286.914 17.9667 287.234 18.62C287.554 19.2734 287.994 19.7867 288.554 20.16C289.127 20.52 289.76 20.7 290.454 20.7ZM302.747 22.2C301.347 22.2 300.207 21.8667 299.327 21.2C298.447 20.5334 297.914 19.6134 297.727 18.44H299.507C299.654 19.1467 299.994 19.7 300.527 20.1C301.074 20.5 301.821 20.7 302.767 20.7C303.541 20.7 304.154 20.5534 304.607 20.26C305.074 19.9667 305.307 19.5467 305.307 19C305.307 18.5734 305.167 18.2334 304.887 17.98C304.621 17.7134 304.274 17.5134 303.847 17.38C303.434 17.2467 302.881 17.1134 302.187 16.98C301.321 16.8067 300.621 16.6334 300.087 16.46C299.567 16.2734 299.121 15.98 298.747 15.58C298.374 15.18 298.187 14.6267 298.187 13.92C298.187 12.92 298.561 12.14 299.307 11.58C300.067 11.02 301.034 10.74 302.207 10.74C303.407 10.74 304.407 11.0534 305.207 11.68C306.007 12.3067 306.501 13.1667 306.687 14.26H305.107C304.947 13.58 304.614 13.0734 304.107 12.74C303.601 12.4067 302.967 12.24 302.207 12.24C301.474 12.24 300.901 12.38 300.487 12.66C300.087 12.9267 299.887 13.3 299.887 13.78C299.887 14.1534 300.014 14.4467 300.267 14.66C300.521 14.8734 300.834 15.04 301.207 15.16C301.581 15.2667 302.107 15.3867 302.787 15.52C303.681 15.6934 304.407 15.88 304.967 16.08C305.527 16.2667 306.007 16.58 306.407 17.02C306.807 17.4467 307.007 18.0467 307.007 18.82C307.007 19.86 306.634 20.6867 305.887 21.3C305.141 21.9 304.094 22.2 302.747 22.2Z" fill="white"/>
<path d="M409.677 22.2C408.13 22.2 406.83 21.8467 405.777 21.14C404.723 20.42 403.937 19.4667 403.417 18.28C402.897 17.0934 402.637 15.7867 402.637 14.36C402.637 12.9334 402.897 11.6267 403.417 10.44C403.937 9.25337 404.723 8.3067 405.777 7.60004C406.83 6.89337 408.13 6.54004 409.677 6.54004C410.783 6.54004 411.77 6.7267 412.637 7.10004C413.503 7.47337 414.203 7.99337 414.737 8.66004C415.27 9.3267 415.617 10.0934 415.777 10.96H413.777C413.59 10.1067 413.123 9.43337 412.377 8.94004C411.643 8.43337 410.73 8.18004 409.637 8.18004C408.53 8.18004 407.59 8.4467 406.817 8.98004C406.043 9.50004 405.457 10.2267 405.057 11.16C404.67 12.0934 404.477 13.16 404.477 14.36C404.477 15.5734 404.67 16.6467 405.057 17.58C405.457 18.5134 406.043 19.2467 406.817 19.78C407.59 20.3 408.53 20.56 409.637 20.56C410.757 20.56 411.677 20.2934 412.397 19.76C413.13 19.2134 413.59 18.42 413.777 17.38H415.777C415.537 18.8734 414.877 20.0534 413.797 20.92C412.73 21.7734 411.357 22.2 409.677 22.2ZM422.958 22.2C421.918 22.2 420.984 21.9534 420.158 21.46C419.344 20.9667 418.704 20.28 418.238 19.4C417.784 18.52 417.558 17.5267 417.558 16.42C417.558 15.34 417.784 14.3667 418.238 13.5C418.704 12.6334 419.344 11.96 420.158 11.48C420.984 10.9867 421.918 10.74 422.958 10.74C423.998 10.74 424.931 10.9867 425.758 11.48C426.584 11.96 427.231 12.6334 427.698 13.5C428.164 14.3667 428.398 15.34 428.398 16.42C428.398 17.5267 428.164 18.52 427.698 19.4C427.244 20.2667 426.604 20.9534 425.778 21.46C424.951 21.9534 424.011 22.2 422.958 22.2ZM422.958 20.7C423.651 20.7 424.278 20.5134 424.838 20.14C425.411 19.7667 425.858 19.26 426.178 18.62C426.511 17.9667 426.678 17.2334 426.678 16.42C426.678 15.6467 426.518 14.94 426.198 14.3C425.878 13.66 425.431 13.16 424.858 12.8C424.298 12.4267 423.664 12.24 422.958 12.24C422.264 12.24 421.631 12.42 421.058 12.78C420.498 13.14 420.058 13.64 419.738 14.28C419.418 14.92 419.258 15.6334 419.258 16.42C419.258 17.2334 419.418 17.9667 419.738 18.62C420.058 19.2734 420.498 19.7867 421.058 20.16C421.631 20.52 422.264 20.7 422.958 20.7ZM430.791 22V10.94H432.491V12.66C433.038 11.9534 433.564 11.46 434.071 11.18C434.591 10.8867 435.158 10.74 435.771 10.74C437.331 10.74 438.418 11.32 439.031 12.48C439.258 12.92 439.398 13.3734 439.451 13.84C439.518 14.2934 439.551 14.7934 439.551 15.34V22H437.851V15.34C437.851 14.1667 437.638 13.34 437.211 12.86C436.838 12.4467 436.271 12.24 435.511 12.24C434.671 12.24 433.998 12.5134 433.491 13.06C433.131 13.4334 432.871 13.9467 432.711 14.6C432.564 15.2534 432.491 16.1467 432.491 17.28V22H430.791ZM445.503 22C444.609 22 443.949 21.8 443.523 21.4C443.096 21 442.883 20.2734 442.883 19.22V12.44H441.103V10.94H442.883V6.74004H444.583V10.94H447.063V12.44H444.583V18.88C444.583 19.2667 444.609 19.5734 444.663 19.8C444.716 20.0134 444.836 20.1867 445.023 20.32C445.209 20.44 445.503 20.5 445.903 20.5H447.043V22H445.503ZM452.349 22.2C451.242 22.2 450.362 21.92 449.709 21.36C449.069 20.8 448.749 20.0334 448.749 19.06C448.749 18.1 449.109 17.34 449.829 16.78C450.416 16.3134 451.262 15.9667 452.369 15.74L456.309 14.98C456.309 14.1134 456.082 13.4534 455.629 13C455.122 12.4934 454.442 12.24 453.589 12.24C452.909 12.24 452.316 12.4267 451.809 12.8C451.316 13.16 451.002 13.6467 450.869 14.26H449.169C449.356 13.1534 449.862 12.2934 450.689 11.68C451.529 11.0534 452.502 10.74 453.609 10.74C454.262 10.74 454.869 10.84 455.429 11.04C455.989 11.2267 456.462 11.5067 456.849 11.88C457.356 12.36 457.676 12.9134 457.809 13.54C457.942 14.1667 458.009 14.8134 458.009 15.48V22H456.309V20.26C455.922 20.82 455.476 21.2534 454.969 21.56C454.289 21.9867 453.416 22.2 452.349 22.2ZM452.549 20.7C453.229 20.7 453.816 20.5734 454.309 20.32C455.056 19.9334 455.576 19.42 455.869 18.78C456.176 18.14 456.329 17.3334 456.329 16.36L452.729 17.08C451.902 17.24 451.296 17.5 450.909 17.86C450.602 18.1667 450.449 18.5534 450.449 19.02C450.449 19.5267 450.636 19.9334 451.009 20.24C451.396 20.5467 451.909 20.7 452.549 20.7ZM464.253 22C463.359 22 462.699 21.8 462.273 21.4C461.846 21 461.633 20.2734 461.633 19.22V12.44H459.853V10.94H461.633V6.74004H463.333V10.94H465.813V12.44H463.333V18.88C463.333 19.2667 463.359 19.5734 463.413 19.8C463.466 20.0134 463.586 20.1867 463.773 20.32C463.959 20.44 464.253 20.5 464.653 20.5H465.793V22H464.253ZM472.587 22.2C471.547 22.2 470.613 21.9534 469.787 21.46C468.973 20.9667 468.333 20.28 467.867 19.4C467.413 18.52 467.187 17.5267 467.187 16.42C467.187 15.34 467.413 14.3667 467.867 13.5C468.333 12.6334 468.973 11.96 469.787 11.48C470.613 10.9867 471.547 10.74 472.587 10.74C473.627 10.74 474.56 10.9867 475.387 11.48C476.213 11.96 476.86 12.6334 477.327 13.5C477.793 14.3667 478.027 15.34 478.027 16.42C478.027 17.5267 477.793 18.52 477.327 19.4C476.873 20.2667 476.233 20.9534 475.407 21.46C474.58 21.9534 473.64 22.2 472.587 22.2ZM472.587 20.7C473.28 20.7 473.907 20.5134 474.467 20.14C475.04 19.7667 475.487 19.26 475.807 18.62C476.14 17.9667 476.307 17.2334 476.307 16.42C476.307 15.6467 476.147 14.94 475.827 14.3C475.507 13.66 475.06 13.16 474.487 12.8C473.927 12.4267 473.293 12.24 472.587 12.24C471.893 12.24 471.26 12.42 470.687 12.78C470.127 13.14 469.687 13.64 469.367 14.28C469.047 14.92 468.887 15.6334 468.887 16.42C468.887 17.2334 469.047 17.9667 469.367 18.62C469.687 19.2734 470.127 19.7867 470.687 20.16C471.26 20.52 471.893 20.7 472.587 20.7Z" fill="white"/>
<line x1="2" y1="36.5" x2="48" y2="36.5" stroke="#2ACE31"/>
</svg>
